<?xml version="1.0" encoding="UTF-8" standalone="no"?>
<svg
   xmlns:dc="http://purl.org/dc/elements/1.1/"
   xmlns:cc="http://creativecommons.org/ns#"
   xmlns:rdf="http://www.w3.org/1999/02/22-rdf-syntax-ns#"
   xmlns:svg="http://www.w3.org/2000/svg"
   xmlns="http://www.w3.org/2000/svg"
   xmlns:sodipodi="http://sodipodi.sourceforge.net/DTD/sodipodi-0.dtd"
   xmlns:inkscape="http://www.inkscape.org/namespaces/inkscape"
   version="1.0"
   width="213.000000pt"
   height="210.000000pt"
   viewBox="0 0 213.000000 210.000000"
   preserveAspectRatio="xMidYMid meet"
   id="svg2"
   inkscape:version="0.91 r13725"
   sodipodi:docname="brand.svg">
  <defs
     id="defs26" />
  <sodipodi:namedview
     pagecolor="#ffffff00"
     bordercolor="#666666"
     borderopacity="1"
     objecttolerance="10"
     gridtolerance="10"
     guidetolerance="10"
     inkscape:pageopacity="0"
     inkscape:pageshadow="2"
     inkscape:window-width="1366"
     inkscape:window-height="712"
     id="namedview24"
     showgrid="false"
     inkscape:zoom="0.89904762"
     inkscape:cx="-91.557203"
     inkscape:cy="131.25"
     inkscape:window-x="0"
     inkscape:window-y="32"
     inkscape:window-maximized="1"
     inkscape:current-layer="svg2" />
  <metadata
     id="metadata4">
Created by potrace 1.15, written by Peter Selinger 2001-2017
<rdf:RDF>
  <cc:Work
     rdf:about="">
    <dc:format>image/svg+xml</dc:format>
    <dc:type
       rdf:resource="http://purl.org/dc/dcmitype/StillImage" />
    <dc:title />
  </cc:Work>
</rdf:RDF>
</metadata>
  <g
     transform="matrix(0.07999992,0,0,-0.07999992,21.300085,188.99253)"
     id="g6"
     style="fill:#ff3900;stroke:none;fill-opacity:1">
    <path
       d="m 1816,2010 c -38,-49 -71,-90 -74,-90 -3,0 -40,34 -83,75 -84,82 -107,90 -153,54 -39,-31 -34,-67 25,-172 59,-105 66,-88 -66,-165 -72,-42 -80,-50 -83,-80 -4,-40 19,-80 51,-87 12,-3 67,8 122,24 54,17 101,29 103,27 2,-2 11,-50 21,-105 21,-114 37,-141 85,-141 55,0 73,21 80,97 4,38 9,92 13,121 l 5,53 37,-5 c 20,-3 71,-8 113,-11 69,-6 79,-4 97,14 14,14 21,34 21,61 0,49 -12,57 -132,96 -49,15 -88,31 -88,35 0,3 20,49 45,102 49,105 53,131 29,165 -11,17 -25,22 -57,22 -41,0 -44,-2 -111,-90 z"
       id="path8"
       inkscape:connector-curvature="0"
       style="fill:#ff3900;fill-opacity:1" />
    <path
       d="m 220,1990 c -38,-38 -35,-60 24,-171 l 55,-105 -94,-47 c -102,-50 -118,-71 -99,-126 16,-46 46,-52 159,-32 62,12 102,15 106,9 3,-5 16,-54 29,-108 22,-99 35,-122 77,-134 26,-8 78,16 87,39 3,9 6,62 6,117 l 0,100 33,-5 c 150,-27 197,-29 222,-13 30,20 41,58 26,94 -9,22 -30,35 -109,66 -53,22 -100,42 -105,46 -4,3 13,50 38,103 25,53 45,108 45,122 0,37 -33,65 -77,64 -35,0 -43,-7 -108,-85 l -70,-84 -82,85 c -68,71 -87,85 -112,85 -18,0 -40,-9 -51,-20 z"
       id="path10"
       inkscape:connector-curvature="0"
       style="fill:#ff3900;fill-opacity:1" />
    <path
       d="m 981,1903 c -12,-10 -24,-35 -28,-55 -5,-32 -1,-41 25,-68 34,-33 59,-37 101,-15 32,16 41,33 41,79 0,65 -87,101 -139,59 z"
       id="path12"
       inkscape:connector-curvature="0"
       style="fill:#ff3900;fill-opacity:1" />
    <path
       d="m 1527,1486 c -47,-36 -87,-225 -87,-410 0,-205 38,-406 120,-638 22,-62 38,-113 37,-114 -1,-2 -38,61 -81,139 -197,355 -435,670 -635,842 -45,39 -96,76 -113,83 -61,26 -128,-16 -128,-82 0,-25 12,-41 68,-91 277,-247 502,-556 729,-1005 52,-102 101,-191 110,-197 22,-17 93,-16 115,1 23,17 40,64 33,90 -3,11 4,4 15,-16 33,-61 77,-74 124,-37 37,29 34,69 -15,175 -131,284 -200,519 -218,746 -11,132 1,280 29,370 26,82 25,104 -5,133 -27,28 -70,32 -98,11 z"
       id="path14"
       inkscape:connector-curvature="0"
       style="fill:#ff3900;fill-opacity:1" />
    <path
       d="m 1126,1289 c -21,-16 -26,-29 -26,-64 0,-35 5,-48 26,-64 89,-70 195,52 112,129 -28,26 -78,26 -112,-1 z"
       id="path16"
       inkscape:connector-curvature="0"
       style="fill:#ff3900;fill-opacity:1" />
    <path
       d="m 119,1251 c -31,-31 -36,-59 -17,-94 26,-50 86,-62 132,-26 21,16 26,29 26,64 0,35 -5,48 -26,64 -38,30 -80,27 -115,-8 z"
       id="path18"
       inkscape:connector-curvature="0"
       style="fill:#ff3900;fill-opacity:1" />
    <path
       d="m 250,910 c -23,-23 -24,-54 -5,-160 7,-41 12,-76 12,-77 -1,-1 -51,-8 -110,-16 C 22,640 0,627 0,569 c 0,-32 19,-69 36,-69 11,0 208,-31 210,-33 1,-1 -7,-55 -19,-119 -19,-108 -19,-118 -4,-141 21,-32 70,-44 100,-24 13,9 37,53 61,113 22,55 40,100 42,102 1,2 47,-29 102,-67 96,-68 121,-78 157,-65 17,7 45,54 45,78 0,9 -38,58 -85,110 -47,51 -85,96 -85,98 0,3 36,29 80,58 45,29 86,62 91,72 23,43 -17,108 -66,108 -11,0 -62,-16 -113,-35 -51,-19 -96,-35 -101,-35 -4,0 -25,40 -46,90 -20,49 -45,96 -54,105 -25,21 -77,19 -101,-5 z"
       id="path20"
       inkscape:connector-curvature="0"
       style="fill:#ff3900;fill-opacity:1" />
    <path
       d="m 722,592 c -40,-40 -41,-103 -2,-142 15,-15 34,-20 70,-20 192,0 327,-95 462,-324 32,-54 68,-73 109,-56 58,24 63,88 13,178 -130,237 -315,368 -535,380 -88,4 -98,3 -117,-16 z"
       id="path22"
       inkscape:connector-curvature="0"
       style="fill:#ff3900;fill-opacity:1" />
  </g>
</svg>
